<svg width="358" height="94" viewBox="0 0 358 94" fill="none" xmlns="http://www.w3.org/2000/svg">
<g opacity="0.5">
<path fill-rule="evenodd" clip-rule="evenodd" d="M325.497 46.8409L337.404 77.8227L356.981 9.24806C357.413 7.73518 359.586 7.82301 359.894 9.36589L367.191 45.879L398 45.879L398 47.879L366.781 47.879C366.066 47.879 365.45 47.3742 365.31 46.673L358.338 11.7818L338.916 79.8105C338.521 81.1955 336.59 81.2813 336.074 79.9368L323.754 47.879L285.851 47.8791L278.667 69.4501C278.219 70.7945 276.329 70.8256 275.837 69.4967L251.35 3.32991L236.688 76.7002C236.386 78.209 234.28 78.3399 233.794 76.8803L224.134 47.8791L222.275 47.8791L222.275 47.88L157.526 47.88L150.223 84.395C149.915 85.9375 147.742 86.0254 147.31 84.5129L127.716 15.9342L115.799 46.9185C115.576 47.4978 115.02 47.88 114.399 47.88L75.7618 47.88C75.1161 47.88 74.5429 47.4669 74.3388 46.8544L67.4835 26.2886L42.8565 92.7816C42.3313 94.1996 40.2755 94.0376 39.979 92.5548L25.3271 19.2956L16.1409 46.8544C15.9367 47.4669 15.3635 47.88 14.7178 47.88L-39.9994 47.88L-39.9994 45.88L14.3575 45.88L24.0251 16.877C24.5116 15.4178 26.6174 15.5489 26.919 17.0572L41.594 90.4319L66.1017 24.261C66.5937 22.9326 68.4834 22.9637 68.9313 24.3076L76.1221 45.88L114.056 45.88L126.386 13.8208C126.903 12.4767 128.833 12.5626 129.229 13.9472L148.667 81.9804L155.646 47.0859C155.786 46.3847 156.401 45.88 157.116 45.88L169.821 45.88L169.821 45.8791L224.495 45.8791C225.14 45.8791 225.714 46.2924 225.918 46.9051L235.096 74.4606L249.735 1.20583C250.031 -0.277264 252.088 -0.43932 252.613 0.97916L277.219 67.4683L284.068 46.9051C284.272 46.2924 284.845 45.8791 285.491 45.8791L324.097 45.879C324.718 45.879 325.275 46.2615 325.497 46.8409Z" fill="url(#paint0_linear_1542_22026)"/>
<path fill-rule="evenodd" clip-rule="evenodd" d="M32.5028 46.8409L20.5962 77.8227L1.01897 9.24806C0.587054 7.73518 -1.586 7.82301 -1.89432 9.36589L-9.19117 45.879L-40 45.879L-40 47.879L-8.78121 47.879C-8.06609 47.879 -7.45043 47.3742 -7.31029 46.673L-0.337583 11.7818L19.0838 79.8105C19.4792 81.1955 21.4096 81.2813 21.9263 79.9368L34.2464 47.879L72.1485 47.8791L79.3332 69.4501C79.781 70.7945 81.6713 70.8256 82.1631 69.4967L106.65 3.32991L121.312 76.7002C121.614 78.209 123.72 78.3399 124.206 76.8803L133.866 47.8791L135.725 47.8791L135.725 47.88L200.474 47.88L207.777 84.395C208.085 85.9375 210.258 86.0254 210.69 84.5129L230.284 15.9342L242.201 46.9185C242.424 47.4978 242.98 47.88 243.601 47.88L282.238 47.88C282.884 47.88 283.457 47.4669 283.661 46.8544L290.517 26.2886L315.144 92.7816C315.669 94.1996 317.724 94.0376 318.021 92.5548L332.673 19.2956L341.859 46.8544C342.063 47.4669 342.636 47.88 343.282 47.88L397.999 47.88L397.999 45.88L343.643 45.88L333.975 16.877C333.488 15.4178 331.383 15.5489 331.081 17.0572L316.406 90.4319L291.898 24.261C291.406 22.9326 289.517 22.9637 289.069 24.3076L281.878 45.88L243.944 45.88L231.614 13.8208C231.097 12.4767 229.167 12.5626 228.771 13.9472L209.333 81.9804L202.354 47.0859C202.214 46.3847 201.599 45.88 200.884 45.88L188.179 45.88L188.179 45.8791L133.505 45.8791C132.86 45.8791 132.286 46.2924 132.082 46.9051L122.904 74.4606L108.265 1.20583C107.969 -0.277264 105.912 -0.43932 105.387 0.97916L80.7812 67.4683L73.9322 46.9051C73.7281 46.2924 73.1548 45.8791 72.509 45.8791L33.9029 45.879C33.2821 45.879 32.7255 46.2615 32.5028 46.8409Z" fill="url(#paint1_linear_1542_22026)"/>
</g>
<defs>
<linearGradient id="paint0_linear_1542_22026" x1="398" y1="46.8802" x2="178.508" y2="46.3434" gradientUnits="userSpaceOnUse">
<stop stop-color="#121212"/>
<stop offset="0.486675" stop-color="#777777" stop-opacity="0.513325"/>
<stop offset="1" stop-color="#121212" stop-opacity="0"/>
</linearGradient>
<linearGradient id="paint1_linear_1542_22026" x1="-40" y1="46.8802" x2="179.492" y2="46.3434" gradientUnits="userSpaceOnUse">
<stop stop-color="#121212"/>
<stop offset="0.486675" stop-color="#777777" stop-opacity="0.513325"/>
<stop offset="1" stop-color="#121212" stop-opacity="0"/>
</linearGradient>
</defs>
</svg>
